<svg width="48" height="51" viewBox="0 0 48 51" fill="none" xmlns="http://www.w3.org/2000/svg">
<path d="M33.75 45.5H36.25V39.25H42.5V36.75H36.25V30.5H33.75V36.75H27.5V39.25H33.75V45.5ZM35 50.5C31.5417 50.5 28.5938 49.2812 26.1563 46.8438C23.7188 44.4062 22.5 41.4583 22.5 38C22.5 34.5417 23.7188 31.5938 26.1563 29.1563C28.5938 26.7188 31.5417 25.5 35 25.5C38.4583 25.5 41.4062 26.7188 43.8438 29.1563C46.2812 31.5938 47.5 34.5417 47.5 38C47.5 41.4583 46.2812 44.4062 43.8438 46.8438C41.4062 49.2812 38.4583 50.5 35 50.5ZM0 45.5V15.5L20 0.5L40 15.5V21.25C39.2083 21 38.3958 20.8125 37.5625 20.6875C36.7292 20.5625 35.875 20.5 35 20.5V18L20 6.75L5 18V40.5H17.6875C17.8125 41.375 18 42.2292 18.25 43.0625C18.5 43.8958 18.8125 44.7083 19.1875 45.5H0Z" fill="white"/>
</svg>
