<svg width="61" height="60" viewBox="0 0 61 60" fill="none" xmlns="http://www.w3.org/2000/svg">
<g id="Frame">
<path id="Vector" d="M29.249 20.0404C28.7638 20.0404 28.3701 20.4341 28.3701 20.9193V23.1193C28.3701 23.605 28.7638 23.9982 29.249 23.9982C29.7347 23.9982 30.1279 23.605 30.1279 23.1193V20.9193C30.1279 20.4341 29.7347 20.0404 29.249 20.0404Z" fill="white"/>
<path id="Vector_2" d="M40.5273 20.0404C40.0417 20.0404 39.6484 20.4341 39.6484 20.9193V23.1193C39.6484 23.605 40.0417 23.9982 40.5273 23.9982C41.0126 23.9982 41.4062 23.605 41.4062 23.1193V20.9193C41.4062 20.4341 41.0126 20.0404 40.5273 20.0404Z" fill="white"/>
<path id="Vector_3" d="M35.7266 24.9398H34.9287V21.7575C34.9287 21.2722 34.535 20.8786 34.0498 20.8786C33.5641 20.8786 33.1709 21.2722 33.1709 21.7575V25.2328C33.1709 26.0408 33.8278 26.6977 34.6357 26.6977H35.7266C36.2118 26.6977 36.6055 26.3044 36.6055 25.8187C36.6055 25.3335 36.2118 24.9398 35.7266 24.9398Z" fill="white"/>
<path id="Vector_4" d="M27.6056 39.1708L22.4361 35.2436C21.8666 34.811 21.0083 34.811 20.4393 35.2436L15.2693 39.1708C14.8825 39.4642 14.8074 40.0158 15.1009 40.4022C15.3943 40.789 15.9459 40.864 16.3323 40.5706C16.324 40.577 16.3153 40.5821 16.3066 40.588V44.6928C16.3066 45.5003 16.964 46.1576 17.7715 46.1576H25.1034C25.9114 46.1576 26.5683 45.5003 26.5683 44.6928V40.5871C26.56 40.5811 26.5509 40.577 26.5426 40.5706C26.7015 40.6915 26.8883 40.7496 27.0737 40.7496C27.3387 40.7496 27.601 40.6301 27.774 40.4022C28.0675 40.0158 27.9924 39.4647 27.6056 39.1708ZM21.7902 44.3993H21.0852V42.3701H21.7902V44.3993ZM23.548 44.3993V41.7397C23.548 41.1181 23.0531 40.6123 22.4448 40.6123H20.4301C19.8222 40.6123 19.3274 41.1181 19.3274 41.7397V44.3993H18.0649L18.0644 39.255L21.4381 36.6929L24.81 39.2541C24.8105 39.3022 24.8109 44.3993 24.8109 44.3993H23.548Z" fill="white"/>
<path id="Vector_5" d="M24.3693 48.3443H18.5049C18.0197 48.3443 17.626 48.7375 17.626 49.2232C17.626 49.7085 18.0197 50.1021 18.5049 50.1021H24.3693C24.855 50.1021 25.2482 49.7085 25.2482 49.2232C25.2482 48.7375 24.855 48.3443 24.3693 48.3443Z" fill="white"/>
<path id="Vector_6" d="M22.9031 50.8556H19.9707C19.4855 50.8556 19.0918 51.2488 19.0918 51.7345C19.0918 52.2198 19.4855 52.6134 19.9707 52.6134H22.9031C23.3888 52.6134 23.782 52.2198 23.782 51.7345C23.782 51.2488 23.3888 50.8556 22.9031 50.8556Z" fill="white"/>
<path id="Vector_7" d="M51.1666 49.9804C51.6518 49.9804 52.0455 49.5867 52.0455 49.1015V45.6989C52.0455 43.8052 51.2783 42.0876 50.0391 40.8393V26.7333C50.5175 26.1708 50.8072 25.4434 50.8072 24.6487V21.8724C50.8072 21.0781 50.5175 20.3503 50.0391 19.7877V15.14C50.0391 11.9371 49.0467 8.87373 47.1685 6.28096C46.8838 5.88775 46.3344 5.80031 45.9412 6.08504C45.548 6.36977 45.4601 6.91908 45.7448 7.3123C47.4042 9.60341 48.2813 12.3102 48.2813 15.14V18.7266C48.057 18.6767 47.824 18.6497 47.5846 18.6497H47.0064V17.8381C47.0064 17.0297 46.3486 16.3723 45.5407 16.3723H43.0088C41.5343 16.3723 40.1285 15.6688 39.2478 14.4891C38.9727 14.1211 38.5337 13.9009 38.0741 13.9009C37.6141 13.9009 37.1751 14.1211 36.8995 14.49C36.0192 15.6688 34.6134 16.3723 33.139 16.3723H24.2359C23.4275 16.3723 22.7702 17.0297 22.7702 17.8381V18.6497H22.1916C21.9526 18.6497 21.7192 18.6767 21.4949 18.7266V15.14C21.4949 7.76091 27.503 1.75781 34.8881 1.75781C37.5642 1.75781 40.1487 2.54745 42.3629 4.04113C42.3633 4.04159 42.8092 4.35195 43.023 4.51583C43.1823 4.63805 43.3704 4.6971 43.5567 4.6971C43.8209 4.6971 44.0822 4.57854 44.2553 4.35287C44.5505 3.96743 44.4777 3.41583 44.0923 3.12057C43.8502 2.93518 43.3434 2.58224 43.342 2.58132C40.8372 0.892637 37.9143 0 34.8881 0C26.5339 0 19.737 6.79183 19.737 15.14V19.7882C19.2587 20.3503 18.9694 21.0781 18.9694 21.8728V24.6487C18.9694 25.4434 19.2587 26.1708 19.737 26.7333V30.3634H12.0942C11.4158 30.3634 10.8638 30.9155 10.8638 31.5939V43.1217H10.7635C9.82144 43.1217 9.05469 43.888 9.05469 44.8296V45.7625C9.05469 46.0638 9.13342 46.3462 9.27075 46.592C9.13342 46.8378 9.05469 47.1203 9.05469 47.4215V48.3539C9.05469 48.6547 9.13342 48.9376 9.27075 49.1829C9.13388 49.4292 9.05469 49.7117 9.05469 50.0124V50.9453C9.05469 51.2461 9.13342 51.529 9.27075 51.7743C9.13388 52.0202 9.05469 52.3026 9.05469 52.6038V53.5363C9.05469 54.4784 9.82144 55.2446 10.7635 55.2446H10.8638V56.5667C10.8638 57.2451 11.4158 57.7971 12.0942 57.7971H17.7307V58.536C17.7307 59.343 18.3876 59.9999 19.1946 59.9999H50.5816C51.3886 59.9999 52.0455 59.343 52.0455 58.536V53.3202C52.0455 52.8345 51.6518 52.4413 51.1666 52.4413C50.6809 52.4413 50.2877 52.8345 50.2877 53.3202V58.2421H36.488L37.6603 56.3506C37.8672 56.7397 38.2764 57.0057 38.747 57.0057H48.1829C48.8613 57.0057 49.4133 56.4536 49.4133 55.7752V50.2592C49.4133 49.5807 48.8613 49.0287 48.1829 49.0287H46.2589V48.7046C46.2589 48.0257 45.7068 47.4741 45.0284 47.4741H43.1621L44.0763 45.9992C44.2782 45.6737 44.2457 45.2549 43.9962 44.9642L42.1601 42.8214L45.1914 41.0091C45.3608 40.908 45.4885 40.7533 45.559 40.5724C48.2016 40.7853 50.2877 43.0022 50.2877 45.6989V49.1015C50.2877 49.5867 50.6809 49.9804 51.1666 49.9804ZM33.139 18.1302C35.0391 18.1302 36.8569 17.2787 38.0736 15.8363C39.2908 17.2787 41.1082 18.1302 43.0083 18.1302H45.2482V26.033C45.2482 31.7408 40.6005 36.3844 34.8876 36.3844C33.8897 36.3844 32.9247 36.242 32.011 35.9774V32.6504C32.7815 33.3219 33.7876 33.7298 34.8881 33.7298C37.306 33.7298 39.273 31.7642 39.273 29.3476C39.273 28.579 38.6472 27.9537 37.8786 27.9537H31.8975C31.1285 27.9537 30.5032 28.579 30.5032 29.3476C30.5032 29.6974 30.5457 30.037 30.6236 30.3634H25.4797C24.869 29.045 24.528 27.5784 24.528 26.033V18.1302H33.139ZM32.7064 42.4584L32.011 40.1019V37.7929C32.9334 38.019 33.8961 38.1422 34.8876 38.1422C35.957 38.1422 36.9942 38.0026 37.9826 37.7412V38.9066C37.9826 39.1424 37.9194 39.5795 37.8525 39.8057L37.0698 42.4589C35.6255 42.7262 34.1506 42.7262 32.7064 42.4584ZM36.5205 44.3206L34.8881 49.8527L33.2557 44.3206C33.7991 44.3865 34.3443 44.4199 34.8881 44.4199C35.4314 44.4199 35.9771 44.3865 36.5205 44.3206ZM32.2862 29.7116H37.49C37.3119 30.9869 36.2128 31.972 34.8881 31.972C33.5633 31.972 32.4642 30.9873 32.2862 29.7116ZM23.5717 30.3634H21.4949V27.7944C21.7192 27.8443 21.9526 27.8713 22.1916 27.8713H22.9107C23.043 28.7351 23.2664 29.5692 23.5717 30.3634ZM22.192 20.4075H22.7702V22.2807H22.1426C21.6574 22.2807 21.2637 22.6744 21.2637 23.1596C21.2637 23.6453 21.6574 24.0385 22.1426 24.0385H22.7702V26.033C22.7702 26.06 22.7711 26.0865 22.7711 26.1135H22.192C21.3841 26.1135 20.7272 25.4566 20.7272 24.6487V21.8724C20.7272 21.0649 21.3841 20.4075 22.192 20.4075ZM12.1666 53.4864H10.8125V52.6533H12.1666V53.4864ZM12.1666 50.8954H10.8125V50.0619H12.1666V50.8954ZM12.1666 48.304H10.8125V47.4709H12.1666V48.304ZM12.1666 45.7131H10.8125V44.8795H12.1666V45.7131ZM19.4885 58.2421V57.7971H24.8663C25.352 57.7971 25.7452 57.4035 25.7452 56.9182C25.7452 56.4325 25.352 56.0393 24.8663 56.0393H12.6216V55.1934C13.3682 55.0107 13.9244 54.3378 13.9244 53.5363V52.6034C13.9244 52.3026 13.8456 52.0202 13.7083 51.7743C13.8452 51.5285 13.9244 51.2461 13.9244 50.9453V50.0124C13.9244 49.7117 13.8456 49.4288 13.7083 49.1829C13.8452 48.9371 13.9244 48.6547 13.9244 48.3539V47.421C13.9244 47.1203 13.8456 46.8378 13.7083 46.592C13.8456 46.3457 13.9244 46.0633 13.9244 45.7625V44.8296C13.9244 44.0281 13.3682 43.3552 12.6216 43.1721V32.1212H30.2532V56.0393H29.0264C28.5412 56.0393 28.1475 56.4325 28.1475 56.9182C28.1475 57.4035 28.5412 57.7971 29.0264 57.7971H30.7806C31.459 57.7971 32.011 57.2451 32.011 56.5667V55.8548L33.4905 58.2421H19.4885ZM46.2479 50.7865H47.6555V55.2478H39.2744V50.7865H40.6815C40.7575 51.3926 41.2748 51.8627 41.901 51.8627H45.0284C45.6547 51.8632 46.1719 51.3926 46.2479 50.7865ZM42.4283 49.2319H44.5011V50.1053H42.4283V49.2319ZM40.3634 41.8478C40.1409 41.9805 39.9885 42.2048 39.9468 42.4607C39.9052 42.7161 39.9784 42.9775 40.1469 43.1739L42.243 45.6197L40.1304 49.0287H38.747C38.0682 49.0287 37.5165 49.5807 37.5165 50.2592V53.2461L34.9892 57.3233L32.011 52.5178V46.3132L33.8792 52.645C34.1154 53.4447 34.7109 53.507 34.8876 53.507C35.0648 53.507 35.6603 53.4447 35.8965 52.645L39.538 40.3033C39.6534 39.9133 39.7399 39.3127 39.7399 38.9066V37.1278C40.1661 36.9405 40.579 36.7291 40.9782 36.4961L43.4711 39.9897L40.3634 41.8478ZM45.1424 38.7963H44.7794L42.4288 35.5027C44.7611 33.6446 46.3944 30.9471 46.8659 27.8713H47.5846C47.8235 27.8713 48.057 27.8443 48.2813 27.7944V39.5544C47.3388 39.071 46.2722 38.7963 45.1424 38.7963ZM49.0494 24.6487C49.0494 25.4566 48.3921 26.1135 47.5846 26.1135H47.0051C47.0051 26.087 47.006 26.06 47.006 26.033V24.0385H47.6336C48.1193 24.0385 48.5125 23.6453 48.5125 23.1596C48.5125 22.6744 48.1193 22.2807 47.6336 22.2807H47.006V20.4075H47.5846C48.3921 20.4075 49.0494 21.0649 49.0494 21.8724V24.6487Z" fill="white"/>
</g>
</svg>
