<svg width="61" height="60" viewBox="0 0 61 60" fill="none" xmlns="http://www.w3.org/2000/svg">
<path d="M44.7196 40.2049C46.1187 39.174 46.9939 37.518 46.9939 35.7307C46.9939 35.6445 46.9917 35.5575 46.9876 35.4712C50.5463 34.6526 53.1582 31.4846 53.1582 27.7009C53.1582 23.8954 50.4473 20.6779 46.8548 19.8994C46.8818 19.6537 46.8953 19.407 46.8953 19.1602C46.8953 16.3657 45.2086 13.8607 42.6582 12.7909C42.3417 11.0865 41.2441 9.65662 39.7501 8.88375L41.1732 5.28262C41.3033 4.95412 41.2951 4.587 41.1507 4.2645C41.0063 3.942 40.7382 3.69112 40.4071 3.56887C34.0178 1.20975 26.9809 1.21012 20.5917 3.56887C20.2602 3.69112 19.9921 3.942 19.8481 4.2645C19.7041 4.587 19.6958 4.95412 19.8256 5.28262L21.1876 8.72849C19.4746 9.47812 18.2164 11.07 17.9292 12.9772C17.9179 12.9829 17.9059 12.9877 17.8947 12.9934C15.5562 14.1772 14.1038 16.5401 14.1038 19.1599C14.1038 19.4066 14.1222 19.653 14.1492 19.8986C10.5544 20.6752 7.84131 23.8931 7.84131 27.7005C7.84131 31.4854 10.4562 34.6511 14.0164 35.4682C14.0123 35.5556 14.0056 35.643 14.0056 35.7304C14.0056 37.5664 14.9052 39.192 16.2829 40.203C12.3567 42.282 9.84231 46.3444 9.84231 50.9333V56.8875C9.84231 57.6124 10.4299 58.2 11.1548 58.2H49.8443C50.5692 58.2 51.1568 57.6124 51.1568 56.8875V50.9336C51.1572 46.3459 48.6439 42.2842 44.7196 40.2049ZM41.0626 47.7922C41.7616 47.7922 42.3304 48.3611 42.3304 49.0601C42.3304 49.7591 41.7616 50.328 41.0626 50.328C40.3636 50.328 39.7947 49.7591 39.7947 49.0601C39.7947 48.3611 40.3636 47.7922 41.0626 47.7922ZM38.2261 5.59875L35.7889 11.7656C34.0317 11.5196 32.2654 11.3966 30.4999 11.3966C28.7341 11.3966 26.9682 11.5196 25.2109 11.7656L22.7734 5.59875C27.8018 4.03312 33.1977 4.03312 38.2261 5.59875ZM10.4667 27.7009C10.4667 24.7834 12.8416 22.3807 15.7606 22.3455C15.7707 22.3455 15.7797 22.3425 15.7898 22.3421C15.8588 22.3399 15.9282 22.3324 15.9972 22.3189C16.0294 22.3125 16.0598 22.3027 16.0909 22.2945C16.1221 22.2859 16.1532 22.281 16.1839 22.2701C16.1974 22.2652 16.2091 22.257 16.2226 22.2517C16.2679 22.2341 16.3103 22.2124 16.3531 22.1899C16.3883 22.1715 16.4236 22.1535 16.4566 22.1321C16.4929 22.1085 16.5263 22.0819 16.5597 22.0549C16.5931 22.0282 16.6264 22.0024 16.6568 21.9727C16.6864 21.9442 16.7123 21.9127 16.7389 21.8812C16.7667 21.8486 16.7948 21.8167 16.8192 21.7815C16.8432 21.747 16.8631 21.7102 16.8841 21.6735C16.9047 21.6371 16.9253 21.6015 16.9422 21.5632C16.9591 21.525 16.9718 21.4852 16.9849 21.4451C16.9988 21.4039 17.0123 21.3626 17.0221 21.3199C17.0307 21.282 17.0352 21.2434 17.0401 21.2044C17.0464 21.1564 17.0521 21.1084 17.0528 21.0592C17.0532 21.045 17.0566 21.0315 17.0566 21.0172C17.0562 20.991 17.0498 20.967 17.0479 20.9411C17.0446 20.8954 17.0408 20.85 17.0326 20.8039C17.0243 20.757 17.0119 20.7124 16.9992 20.6677C16.9921 20.643 16.9898 20.6182 16.9808 20.5935C16.8136 20.1229 16.7288 19.6406 16.7288 19.1602C16.7288 17.5354 17.6299 16.0699 19.0812 15.3352C19.2529 15.2482 19.4326 15.1721 19.6152 15.1091C20.2084 14.9044 20.5591 14.3175 20.4901 13.719C20.5227 12.5944 21.1939 11.6299 22.1539 11.1731L23.1544 13.7044C23.3551 14.2117 23.8433 14.5346 24.3743 14.5346C24.4467 14.5346 24.5198 14.5286 24.5929 14.5162C28.5121 13.8562 32.4871 13.8562 36.4062 14.5162C37.0152 14.619 37.6171 14.2811 37.8447 13.7044L38.7766 11.3467C39.5888 11.8646 40.1303 12.771 40.1303 13.8037C40.1303 14.5106 40.6906 15.0829 41.3903 15.111C41.3914 15.1114 41.3922 15.1117 41.3929 15.1121C43.1142 15.7102 44.2703 17.337 44.2703 19.1599C44.2703 19.6406 44.1856 20.1225 44.0183 20.5931C43.8766 20.9921 43.9358 21.4354 44.1784 21.783C44.4207 22.1306 44.8156 22.3399 45.2393 22.3451C48.1579 22.3804 50.5328 24.783 50.5328 27.7005C50.5328 30.5805 48.2761 32.9287 45.3957 33.0469C44.9817 33.0637 44.6003 33.2752 44.3663 33.6172C44.1323 33.9592 44.0738 34.3916 44.2077 34.7835C44.3142 35.0947 44.3686 35.4135 44.3686 35.7304C44.3686 36.9431 43.6058 38.0449 42.4711 38.4709C42.2712 38.5459 42.0634 38.5957 41.8519 38.625C41.3348 36.2797 39.4834 34.4317 37.1359 33.9214V33.7886C38.4278 32.4124 39.4276 30.7721 40.0519 28.9639C41.2122 28.6226 42.1073 27.6397 42.3109 26.4172L42.7062 24.0465C42.9076 22.8379 42.4864 21.6247 41.5797 20.8005L41.5384 20.763C41.5838 20.5417 41.6232 20.319 41.6551 20.0966C41.7173 19.6669 41.5624 19.2341 41.2418 18.9405C40.9212 18.6472 40.4757 18.5317 40.0538 18.6315C39.9432 18.657 37.3388 19.2386 35.9123 16.602C35.7034 16.2157 35.3149 15.9596 34.8777 15.9195C34.4382 15.8786 34.0114 16.0609 33.7366 16.4025C32.3802 18.0836 28.4187 19.0106 25.9006 17.655C25.5807 17.4832 25.2034 17.451 24.8592 17.5669C24.5149 17.6831 24.2341 17.9366 24.0837 18.2674C23.7533 18.9949 23.0359 19.4715 22.2439 19.4955L20.9232 19.3519C20.5032 19.3069 20.0854 19.4662 19.8034 19.7816C19.5642 20.049 19.4468 20.4 19.4727 20.7525L19.4202 20.8001C18.5131 21.624 18.0919 22.8375 18.2933 24.0465L18.6882 26.4169C18.8918 27.6397 19.7877 28.6226 20.9476 28.9639C21.5719 30.7729 22.5724 32.4135 23.8647 33.7897V33.9206C21.5168 34.4306 19.6647 36.2782 19.1476 38.6239C17.7278 38.424 16.6306 37.2041 16.6306 35.7304C16.6306 35.4131 16.6846 35.0947 16.7914 34.7835C16.7974 34.7655 16.7989 34.7475 16.8042 34.7295C16.8173 34.6856 16.8271 34.641 16.8357 34.5949C16.8436 34.5514 16.8503 34.5086 16.8537 34.4655C16.8552 34.4475 16.8604 34.4306 16.8612 34.4122C16.8623 34.3894 16.8574 34.368 16.8571 34.3455C16.8567 34.2975 16.8544 34.2506 16.8484 34.2034C16.8436 34.1625 16.8368 34.1227 16.8282 34.0834C16.8192 34.041 16.8083 33.9997 16.7948 33.9585C16.7817 33.9176 16.7667 33.8782 16.7498 33.8392C16.7333 33.801 16.7149 33.7639 16.6947 33.7271C16.6744 33.6904 16.6527 33.6551 16.6291 33.6206C16.6051 33.585 16.5792 33.5512 16.5514 33.5182C16.5252 33.4871 16.4982 33.4575 16.4693 33.4286C16.4386 33.3979 16.4063 33.3694 16.3726 33.3416C16.3396 33.315 16.3058 33.2906 16.2706 33.267C16.2361 33.2441 16.2008 33.2227 16.1637 33.2032C16.1224 33.1815 16.0801 33.1624 16.0366 33.1447C16.0152 33.1361 15.9964 33.1237 15.9747 33.1162C15.9574 33.1102 15.9402 33.1095 15.9229 33.1042C15.8794 33.0911 15.8348 33.0817 15.7894 33.0731C15.7456 33.0649 15.7021 33.0581 15.6586 33.0544C15.6398 33.0529 15.6226 33.0472 15.6038 33.0465C12.7231 32.9295 10.4667 30.5809 10.4667 27.7009ZM34.5233 38.7784C33.8479 40.3324 32.2996 41.4229 30.4999 41.4229C28.7011 41.4229 27.1534 40.3339 26.4777 38.781C26.4837 38.7307 26.4901 38.6805 26.4901 38.6291V35.9576C26.5786 36.0135 26.6656 36.0709 26.7556 36.1249C27.8018 36.7522 28.9996 37.0837 30.2198 37.0837H30.7808C32.0011 37.0837 33.1988 36.7522 34.2447 36.1249C34.3351 36.0709 34.4224 36.0131 34.5113 35.9569V38.6291C34.5113 38.6794 34.5177 38.7289 34.5233 38.7784ZM32.8947 33.873C32.2564 34.2559 31.5256 34.4584 30.7804 34.4584H30.2194C29.4747 34.4584 28.7434 34.2562 28.1052 33.873C25.8732 32.535 24.1954 30.4365 23.3806 27.9645L23.2279 27.5021C23.0453 26.9467 22.5518 26.5477 21.9702 26.4851L21.7849 26.4652C21.5284 26.4379 21.3199 26.241 21.2772 25.9864L20.8819 23.6156C20.8279 23.2912 20.9408 22.9654 21.1849 22.7441L21.8037 22.1816C21.8333 22.1546 21.8611 22.1269 21.8877 22.098L22.0396 22.1145C22.0864 22.1197 22.1337 22.1224 22.1813 22.1224C23.5838 22.1224 24.8944 21.4935 25.7776 20.4517C28.5987 21.4076 32.2246 20.871 34.5451 19.2037C35.8141 20.6272 37.4209 21.1744 38.7691 21.2962C38.7912 21.6304 38.9404 21.9499 39.1966 22.1827L39.8146 22.7441C40.0576 22.9654 40.1708 23.2912 40.1172 23.616L39.7219 25.9864C39.6796 26.241 39.4707 26.4379 39.2138 26.4652L39.0293 26.4851C38.4477 26.5477 37.9542 26.9467 37.7716 27.5014L37.6189 27.9649C36.8044 30.4365 35.1263 32.535 32.8947 33.873ZM30.4999 43.2975C31.3459 43.2975 32.1518 43.1269 32.8887 42.8216L30.4999 47.6295L28.1108 42.8216C28.8477 43.1269 29.6539 43.2975 30.4999 43.2975ZM48.5322 55.575H12.4677V50.9336C12.4677 46.7865 15.0841 43.1854 18.9998 41.886V43.9567H17.9307C17.4912 43.9567 17.1102 44.262 17.0153 44.6917L15.0091 53.754C14.9476 54.0311 15.0154 54.3218 15.1932 54.5434C15.3713 54.765 15.6402 54.894 15.9244 54.894H17.4679C17.9858 54.894 18.4054 54.4744 18.4054 53.9565C18.4054 53.4386 17.9858 53.019 17.4679 53.019H17.0922L18.6833 45.8317H19.9373H21.1913L22.7824 53.019H22.4071C21.8892 53.019 21.4696 53.4386 21.4696 53.9565C21.4696 54.4744 21.8892 54.894 22.4071 54.894H23.9506C24.2348 54.894 24.5037 54.765 24.6818 54.5434C24.8596 54.3214 24.9274 54.0311 24.8659 53.754L22.8593 44.6917C22.7644 44.262 22.3834 43.9567 21.9439 43.9567H20.8748V39.9547C20.8748 38.04 22.1329 36.4151 23.8651 35.8594V37.6541L22.3688 38.1079C22.0163 38.6366 21.8138 39.2741 21.8138 39.9566V41.0216L24.7126 40.1415C24.7287 40.2071 24.7508 40.2724 24.7823 40.3354L29.4822 49.794C29.6404 50.1131 29.9659 50.3145 30.3218 50.3145H30.6792C31.0351 50.3145 31.3602 50.1131 31.5188 49.794L36.2183 40.3354C36.2494 40.2724 36.2716 40.2075 36.2877 40.1419L39.1876 41.0212V39.9562C39.1876 39.2737 38.9813 38.6362 38.6288 38.1075L37.1363 37.6537V35.8597C38.8681 36.4162 40.1251 38.0407 40.1251 39.9547V46.0605C38.8486 46.4602 37.9197 47.6539 37.9197 49.0605C37.9197 50.7934 39.3297 52.2034 41.0626 52.2034C42.7954 52.2034 44.2054 50.7934 44.2054 49.0605C44.2054 47.6539 43.2766 46.4606 42.0001 46.0605V41.886C45.9158 43.1854 48.5322 46.7865 48.5322 50.934V55.575Z" fill="white"/>
<path d="M28.7791 8.72887H29.5624V9.51225C29.5624 10.0301 29.9821 10.4497 30.4999 10.4497C31.0178 10.4497 31.4374 10.0301 31.4374 9.51225V8.72887H32.2208C32.7387 8.72887 33.1583 8.30925 33.1583 7.79137C33.1583 7.2735 32.7387 6.85387 32.2208 6.85387H31.4374V6.0705C31.4374 5.55262 31.0178 5.133 30.4999 5.133C29.9821 5.133 29.5624 5.55262 29.5624 6.0705V6.85387H28.7791C28.2612 6.85387 27.8416 7.2735 27.8416 7.79137C27.8416 8.30925 28.2612 8.72887 28.7791 8.72887Z" fill="white"/>
</svg>
