<svg width="46" height="40" viewBox="0 0 46 40" fill="none" xmlns="http://www.w3.org/2000/svg">
<path d="M9.7998 40C8.5498 40 7.4873 39.5625 6.6123 38.6875C5.73731 37.8125 5.2998 36.75 5.2998 35.5C5.2998 34.625 5.5498 33.8021 6.0498 33.0312C6.5498 32.2604 7.21647 31.7083 8.04981 31.375L17.7998 27.5V21.875C15.5498 24.5 12.9352 26.5104 9.95605 27.9062C6.97689 29.3021 3.75814 30 0.299805 30V25C3.13314 25 5.70605 24.4167 8.01855 23.25C10.3311 22.0833 12.4248 20.4167 14.2998 18.25L17.6748 14.25C18.1748 13.6667 18.7581 13.2292 19.4248 12.9375C20.0915 12.6458 20.7998 12.5 21.5498 12.5H24.0498C24.7998 12.5 25.5081 12.6458 26.1748 12.9375C26.8415 13.2292 27.4248 13.6667 27.9248 14.25L31.2998 18.25C33.1748 20.4167 35.2686 22.0833 37.5811 23.25C39.8936 24.4167 42.4665 25 45.2998 25V30C41.8415 30 38.6227 29.3021 35.6436 27.9062C32.6644 26.5104 30.0498 24.5 27.7998 21.875V27.5L37.5498 31.375C38.3831 31.7083 39.0498 32.2604 39.5498 33.0312C40.0498 33.8021 40.2998 34.625 40.2998 35.5C40.2998 36.75 39.8623 37.8125 38.9873 38.6875C38.1123 39.5625 37.0498 40 35.7998 40H17.7998V38.75C17.7998 37.6667 18.154 36.7708 18.8623 36.0625C19.5706 35.3542 20.4665 35 21.5498 35H29.0498C29.4248 35 29.7269 34.8854 29.9561 34.6562C30.1852 34.4271 30.2998 34.125 30.2998 33.75C30.2998 33.375 30.1852 33.0729 29.9561 32.8438C29.7269 32.6146 29.4248 32.5 29.0498 32.5H21.5498C19.7998 32.5 18.3206 33.1042 17.1123 34.3125C15.904 35.5208 15.2998 37 15.2998 38.75V40H9.7998ZM22.7998 10C21.4248 10 20.2477 9.51042 19.2686 8.53125C18.2894 7.55208 17.7998 6.375 17.7998 5C17.7998 3.625 18.2894 2.44792 19.2686 1.46875C20.2477 0.489583 21.4248 0 22.7998 0C24.1748 0 25.3519 0.489583 26.3311 1.46875C27.3102 2.44792 27.7998 3.625 27.7998 5C27.7998 6.375 27.3102 7.55208 26.3311 8.53125C25.3519 9.51042 24.1748 10 22.7998 10Z" fill="white"/>
</svg>
