<svg width="51" height="50" viewBox="0 0 51 50" fill="none" xmlns="http://www.w3.org/2000/svg">
<path d="M5.3999 50C4.0249 50 2.84782 49.5104 1.86865 48.5312C0.889486 47.5521 0.399902 46.375 0.399902 45V20C0.399902 18.625 0.889486 17.4479 1.86865 16.4688C2.84782 15.4896 4.0249 15 5.3999 15H45.3999C46.7749 15 47.952 15.4896 48.9312 16.4688C49.9103 17.4479 50.3999 18.625 50.3999 20V45C50.3999 46.375 49.9103 47.5521 48.9312 48.5312C47.952 49.5104 46.7749 50 45.3999 50H5.3999ZM5.3999 45H45.3999V20H5.3999V45ZM20.3999 42.5L35.3999 32.5L20.3999 22.5V42.5ZM5.3999 12.5V7.5H45.3999V12.5H5.3999ZM12.8999 5V0H37.8999V5H12.8999Z" fill="white"/>
</svg>
