<svg width="44" height="60" viewBox="0 0 44 60" fill="none" xmlns="http://www.w3.org/2000/svg">
<path d="M0.975102 59.0625H42.2251C42.4737 59.0625 42.7122 58.9637 42.888 58.7879C43.0638 58.6121 43.1626 58.3736 43.1626 58.125V43.125C43.1646 40.7438 42.4164 38.4224 41.0241 36.4906C39.6318 34.5588 37.6663 33.1147 35.4067 32.3634L34.7251 32.1366V12.2906C34.7249 9.27966 33.5286 6.3921 31.3996 4.26303C29.2705 2.13396 26.3829 0.937749 23.372 0.9375H19.8282C16.8173 0.937749 13.9297 2.13396 11.8006 4.26303C9.67156 6.3921 8.47535 9.27966 8.4751 12.2906V32.1366L7.79354 32.3634C5.53391 33.1147 3.56839 34.5588 2.17612 36.4906C0.783841 38.4224 0.0355842 40.7438 0.0376017 43.125V58.125C0.0376017 58.3736 0.136374 58.6121 0.312189 58.7879C0.488005 58.9637 0.726461 59.0625 0.975102 59.0625ZM8.97104 42.8522C9.41194 44.2687 10.1547 45.5728 11.1481 46.6747C12.1415 47.7765 13.362 48.6499 14.7254 49.2347C15.522 49.5761 16.3869 49.7279 17.2521 49.6783C18.1174 49.6287 18.9592 49.379 19.7116 48.9488C20.4639 48.5186 21.1061 47.9197 21.5877 47.1992C22.0693 46.4787 22.3772 45.6562 22.487 44.7966L23.4751 45.6984V52.5H13.247L11.7667 51.4753C10.7511 50.7722 9.92109 49.8334 9.34782 48.7393C8.77455 47.6451 8.47509 46.4283 8.4751 45.1931C8.47514 44.3867 8.64408 43.5893 8.97104 42.8522ZM10.4392 40.8459C11.5119 39.8887 12.9018 39.3638 14.3395 39.3732C15.7772 39.3825 17.1603 39.9254 18.2204 40.8966L20.6626 43.1306V44.0831C20.6625 44.7002 20.5092 45.3077 20.2166 45.851C19.924 46.3943 19.5012 46.8566 18.986 47.1964C18.4709 47.5361 17.8795 47.7427 17.2648 47.7978C16.6502 47.8528 16.0315 47.7544 15.4642 47.5116C14.1191 46.9342 12.9483 46.0154 12.0678 44.8462C11.1872 43.6771 10.6274 42.2981 10.4439 40.8459H10.4392ZM36.0582 57.1875H20.0185L15.9554 54.375H32.9776L36.0582 57.1875ZM25.3501 52.5V47.4103L30.9245 52.5H25.3501ZM10.6998 53.0166L16.7251 57.1875H9.4126V51.9225C9.80787 52.3252 10.2387 52.6914 10.6998 53.0166ZM26.2876 29.325V26.8566C27.4346 26.1938 28.4285 25.296 29.2041 24.2221C29.9796 23.1481 30.5193 21.9223 30.7876 20.625H30.9751C31.6353 20.6211 32.2826 20.4412 32.8501 20.1038V31.5122L26.2876 29.325ZM24.4126 29.7516L21.6001 34.6725L18.7876 29.7516V27.6891C20.6183 28.2653 22.5819 28.2653 24.4126 27.6891V29.7516ZM21.6001 26.25C19.6117 26.2478 17.7053 25.4569 16.2993 24.0508C14.8932 22.6448 14.1023 20.7384 14.1001 18.75V13.5131L17.5932 10.02C18.3378 11.2577 19.3909 12.2809 20.6495 12.9895C21.9082 13.6981 23.3292 14.0678 24.7735 14.0625H29.1001V18.75C29.0979 20.7384 28.307 22.6448 26.9009 24.0508C25.4949 25.4569 23.5885 26.2478 21.6001 26.25ZM30.9751 15C31.4724 15 31.9493 15.1975 32.3009 15.5492C32.6526 15.9008 32.8501 16.3777 32.8501 16.875C32.8501 17.3723 32.6526 17.8492 32.3009 18.2008C31.9493 18.5525 31.4724 18.75 30.9751 18.75V15ZM13.6595 5.09438C15.3776 3.62217 17.5656 2.81282 19.8282 2.8125H23.372C24.6167 2.81238 25.8493 3.05745 26.9992 3.53373C28.1492 4.01001 29.1941 4.70815 30.0743 5.5883C30.9544 6.46845 31.6526 7.51336 32.1289 8.66336C32.6051 9.81335 32.8502 11.0459 32.8501 12.2906V13.6462C32.2826 13.3088 31.6353 13.1289 30.9751 13.125C30.9751 12.8764 30.8763 12.6379 30.7005 12.4621C30.5247 12.2863 30.2862 12.1875 30.0376 12.1875H24.7735C23.4696 12.1917 22.1947 11.8028 21.1151 11.0717C20.0354 10.3406 19.2011 9.30106 18.721 8.08875C18.6632 7.94485 18.5706 7.81753 18.4515 7.71822C18.3324 7.6189 18.1905 7.55069 18.0385 7.51969C17.8866 7.48922 17.7295 7.49654 17.5811 7.54101C17.4327 7.58547 17.2974 7.66572 17.1873 7.77469L12.4998 12.4622C12.324 12.638 12.2252 12.8764 12.2251 13.125C11.5649 13.1289 10.9176 13.3088 10.3501 13.6462V12.2906C10.3494 10.9233 10.6449 9.57208 11.2162 8.32984C11.7875 7.08759 12.621 5.9838 13.6595 5.09438ZM12.2251 18.75C11.7278 18.75 11.2509 18.5525 10.8993 18.2008C10.5476 17.8492 10.3501 17.3723 10.3501 16.875C10.3501 16.3777 10.5476 15.9008 10.8993 15.5492C11.2509 15.1975 11.7278 15 12.2251 15V18.75ZM10.3501 20.1038C10.9176 20.4412 11.5649 20.6211 12.2251 20.625H12.4126C12.6809 21.9223 13.2206 23.1481 13.9961 24.2221C14.7717 25.296 15.7656 26.1938 16.9126 26.8566V29.325L10.3501 31.5122V20.1038ZM1.9126 43.125C1.91074 41.1373 2.53531 39.1996 3.69758 37.5871C4.85984 35.9747 6.50068 34.7695 8.38698 34.1428L17.4179 31.1325L20.7864 37.0312C20.8684 37.1746 20.9868 37.2938 21.1297 37.3767C21.2726 37.4596 21.4349 37.5032 21.6001 37.5032C21.7653 37.5032 21.9276 37.4596 22.0705 37.3767C22.2134 37.2938 22.3318 37.1746 22.4139 37.0312L25.7823 31.1363L34.8132 34.1466C36.6989 34.7731 38.3393 35.9777 39.5015 37.5894C40.6637 39.2011 41.2887 41.138 41.2876 43.125V57.1875H38.8389L35.6626 54.2878V45H33.7876V52.5759L19.4795 39.5119C18.3779 38.5059 17.0076 37.8419 15.5354 37.6008C14.0632 37.3598 12.5527 37.552 11.1878 38.154C9.82289 38.7561 8.66251 39.7421 7.84796 40.9919C7.03342 42.2417 6.59987 43.7013 6.6001 45.1931C6.60461 46.6072 6.92491 48.0024 7.5376 49.2769V57.1875H1.9126V43.125Z" fill="white"/>
</svg>
