<svg width="31" height="30" viewBox="0 0 31 30" fill="none" xmlns="http://www.w3.org/2000/svg">
<path d="M30.7 11.5385V18.4615C30.6993 19.0734 30.4559 19.6599 30.0233 20.0926C29.5906 20.5252 29.0041 20.7685 28.3923 20.7692H21.4692V27.6923C21.4685 28.3041 21.2251 28.8907 20.7925 29.3233C20.3599 29.7559 19.7733 29.9993 19.1615 30H12.2384C11.6266 29.9993 11.04 29.7559 10.6074 29.3233C10.1748 28.8907 9.93142 28.3041 9.93072 27.6923V20.7692H3.00764C2.39582 20.7685 1.80926 20.5252 1.37663 20.0926C0.944007 19.6599 0.700651 19.0734 0.699951 18.4615V11.5385C0.700651 10.9266 0.944007 10.3401 1.37663 9.90745C1.80926 9.47482 2.39582 9.23147 3.00764 9.23077H9.93072V2.30769C9.93142 1.69587 10.1748 1.10931 10.6074 0.67668C11.04 0.244056 11.6266 0.000699718 12.2384 0H19.1615C19.7733 0.000699718 20.3599 0.244056 20.7925 0.67668C21.2251 1.10931 21.4685 1.69587 21.4692 2.30769V9.23077H28.3923C29.0041 9.23147 29.5906 9.47482 30.0233 9.90745C30.4559 10.3401 30.6993 10.9266 30.7 11.5385Z" fill="white"/>
</svg>
