<svg width="14" height="12" viewBox="0 0 14 12" fill="none" xmlns="http://www.w3.org/2000/svg">
<path fillRule="evenodd" clipRule="evenodd" d="M3.70421 0.557908C3.46578 0.0277909 3.21474 0.0171788 2.98789 0.00790379C2.80235 -5.52933e-05 2.58994 0.000433081 2.37786 0.000433081C2.16562 0.000433081 1.82073 0.0801935 1.52907 0.398726C1.23723 0.717259 0.414795 1.4873 0.414795 3.05341C0.414795 4.61969 1.5556 6.13308 1.71461 6.34564C1.87379 6.55789 3.91679 9.87451 7.15232 11.1504C9.84132 12.2108 10.3885 11.9999 10.9722 11.9468C11.5559 11.8938 12.8555 11.177 13.1208 10.4336C13.3861 9.69043 13.3861 9.05339 13.3065 8.92023C13.2269 8.78758 13.0147 8.70798 12.6963 8.5488C12.3779 8.38962 10.813 7.61942 10.5212 7.5133C10.2293 7.40717 10.0171 7.35411 9.80485 7.67282C9.59261 7.99118 8.9829 8.70798 8.79719 8.92023C8.61148 9.13296 8.42577 9.15949 8.1074 9.0003C7.78904 8.84064 6.76381 8.50485 5.54757 7.42042C4.60127 6.57675 3.96238 5.53477 3.77667 5.21609C3.59096 4.89773 3.75676 4.72528 3.91645 4.56659C4.05937 4.42398 4.23481 4.19499 4.394 4.00911C4.55284 3.82323 4.6059 3.69058 4.71202 3.47834C4.81814 3.26576 4.76508 3.0799 4.68549 2.92071C4.6059 2.76153 3.98725 1.18733 3.70421 0.557908Z" fill="#FF784B"/>
</svg>
