<svg width="25" height="24" viewBox="0 0 25 24" fill="none" xmlns="http://www.w3.org/2000/svg">
<mask id="mask0_8_547" style="mask-type:alpha" maskUnits="userSpaceOnUse" x="0" y="0" width="25" height="24">
<rect x="0.414795" width="24" height="24" fill="#D9D9D9"/>
</mask>
<g mask="url(#mask0_8_547)">
<path d="M12.4148 12C12.9648 12 13.4356 11.8042 13.8273 11.4125C14.219 11.0208 14.4148 10.55 14.4148 10C14.4148 9.45 14.219 8.97917 13.8273 8.5875C13.4356 8.19583 12.9648 8 12.4148 8C11.8648 8 11.394 8.19583 11.0023 8.5875C10.6106 8.97917 10.4148 9.45 10.4148 10C10.4148 10.55 10.6106 11.0208 11.0023 11.4125C11.394 11.8042 11.8648 12 12.4148 12ZM12.4148 19.35C14.4481 17.4833 15.9565 15.7875 16.9398 14.2625C17.9231 12.7375 18.4148 11.3833 18.4148 10.2C18.4148 8.38333 17.8356 6.89583 16.6773 5.7375C15.519 4.57917 14.0981 4 12.4148 4C10.7315 4 9.31063 4.57917 8.15229 5.7375C6.99396 6.89583 6.41479 8.38333 6.41479 10.2C6.41479 11.3833 6.90646 12.7375 7.8898 14.2625C8.87313 15.7875 10.3815 17.4833 12.4148 19.35ZM12.4148 22C9.73146 19.7167 7.72729 17.5958 6.40229 15.6375C5.07729 13.6792 4.41479 11.8667 4.41479 10.2C4.41479 7.7 5.21896 5.70833 6.8273 4.225C8.43563 2.74167 10.2981 2 12.4148 2C14.5315 2 16.394 2.74167 18.0023 4.225C19.6106 5.70833 20.4148 7.7 20.4148 10.2C20.4148 11.8667 19.7523 13.6792 18.4273 15.6375C17.1023 17.5958 15.0981 19.7167 12.4148 22Z" fill="#FF784B"/>
</g>
</svg>
