<svg width="41" height="40" viewBox="0 0 41 40" fill="none" xmlns="http://www.w3.org/2000/svg">
<g id="approval_delegation">
<mask id="mask0_11_509" style="mask-type:alpha" maskUnits="userSpaceOnUse" x="0" y="0" width="41" height="40">
<rect id="Bounding box" x="0.5" width="40" height="40" fill="#D9D9D9"/>
</mask>
<g mask="url(#mask0_11_509)">
<path id="approval_delegation_2" d="M22.0416 18.4165L14.9583 11.3332L17.3333 8.99984L22.0416 13.7082L31.5 4.2915L33.8333 6.62484L22.0416 18.4165ZM12.1666 30.8332L23.75 33.9998L33.6666 30.9165C33.5277 30.6665 33.3263 30.4512 33.0625 30.2707C32.7986 30.0901 32.5 29.9998 32.1666 29.9998H23.75C23 29.9998 22.4027 29.9721 21.9583 29.9165C21.5138 29.861 21.0555 29.7498 20.5833 29.5832L16.7083 28.2915L17.625 25.0415L21 26.1665C21.4722 26.3054 22.0277 26.4165 22.6666 26.4998C23.3055 26.5832 24.25 26.6387 25.5 26.6665C25.5 26.361 25.4097 26.0693 25.2291 25.7915C25.0486 25.5137 24.8333 25.3332 24.5833 25.2498L14.8333 21.6665H12.1666V30.8332ZM2.16663 36.6665V18.3332H14.8333C15.0277 18.3332 15.2222 18.354 15.4166 18.3957C15.6111 18.4373 15.7916 18.486 15.9583 18.5415L25.75 22.1665C26.6666 22.4998 27.4097 23.0832 27.9791 23.9165C28.5486 24.7498 28.8333 25.6665 28.8333 26.6665H32.1666C33.5555 26.6665 34.7361 27.1248 35.7083 28.0415C36.6805 28.9582 37.1666 30.1665 37.1666 31.6665V33.3332L23.8333 37.4998L12.1666 34.2498V36.6665H2.16663ZM5.49996 33.3332H8.83329V21.6665H5.49996V33.3332Z" fill="#009A9F"/>
</g>
</g>
</svg>
