<svg width="41" height="40" viewBox="0 0 41 40" fill="none" xmlns="http://www.w3.org/2000/svg">
<g id="stethoscope_check">
<mask id="mask0_11_473" style="mask-type:alpha" maskUnits="userSpaceOnUse" x="0" y="0" width="41" height="40">
<rect id="Bounding box" x="0.5" width="40" height="40" fill="#D9D9D9"/>
</mask>
<g mask="url(#mask0_11_473)">
<path id="stethoscope_check_2" d="M29.4166 35.0002L23.5 29.0835L25.875 26.7502L29.4166 30.2918L36.5 23.2085L38.8333 25.5835L29.4166 35.0002ZM23 36.6668C20 36.6668 17.4444 35.6113 15.3333 33.5002C13.2222 31.3891 12.1666 28.8335 12.1666 25.8335V24.8752C9.77776 24.4863 7.79165 23.3682 6.20831 21.521C4.62498 19.6738 3.83331 17.5002 3.83331 15.0002V5.00016H8.83331V3.3335H12.1666V10.0002H8.83331V8.3335H7.16665V15.0002C7.16665 16.8335 7.81942 18.4029 9.12498 19.7085C10.4305 21.0141 12 21.6668 13.8333 21.6668C15.6666 21.6668 17.2361 21.0141 18.5416 19.7085C19.8472 18.4029 20.5 16.8335 20.5 15.0002V8.3335H18.8333V10.0002H15.5V3.3335H18.8333V5.00016H23.8333V15.0002C23.8333 17.5002 23.0416 19.6738 21.4583 21.521C19.875 23.3682 17.8889 24.4863 15.5 24.8752V25.8335C15.5 27.9168 16.2291 29.6877 17.6875 31.146C19.1458 32.6043 20.9166 33.3335 23 33.3335V36.6668Z" fill="#009A9F"/>
</g>
</g>
</svg>
