<svg width="41" height="40" viewBox="0 0 41 40" fill="none" xmlns="http://www.w3.org/2000/svg">
<g id="groups_2">
<mask id="mask0_11_493" style="mask-type:alpha" maskUnits="userSpaceOnUse" x="0" y="0" width="41" height="40">
<rect id="Bounding box" x="0.5" width="40" height="40" fill="#D9D9D9"/>
</mask>
<g mask="url(#mask0_11_493)">
<path id="groups_2_2" d="M17.625 20C16.8472 20 16.2083 19.7083 15.7083 19.125C15.2083 18.5417 15.0278 17.8611 15.1667 17.0833L15.6667 14.0833C15.8889 12.8889 16.4514 11.9097 17.3542 11.1458C18.2569 10.3819 19.3056 10 20.5 10C21.7222 10 22.7847 10.3819 23.6875 11.1458C24.5903 11.9097 25.1528 12.8889 25.375 14.0833L25.875 17.0833C26.0139 17.8611 25.8333 18.5417 25.3333 19.125C24.8333 19.7083 24.1944 20 23.4167 20H17.625ZM18.625 16.6667H22.4167L22.0833 14.625C22.0278 14.2361 21.8472 13.9236 21.5417 13.6875C21.2361 13.4514 20.8889 13.3333 20.5 13.3333C20.1111 13.3333 19.7708 13.4514 19.4792 13.6875C19.1875 13.9236 19.0139 14.2361 18.9583 14.625L18.625 16.6667ZM5.66667 21.625C5.02778 21.6528 4.47917 21.5278 4.02083 21.25C3.5625 20.9722 3.26389 20.5417 3.125 19.9583C3.06944 19.7083 3.05556 19.4583 3.08333 19.2083C3.11111 18.9583 3.18056 18.7222 3.29167 18.5C3.29167 18.5278 3.27778 18.4722 3.25 18.3333C3.19444 18.2778 3.05556 17.9444 2.83333 17.3333C2.77778 17 2.81944 16.6806 2.95833 16.375C3.09722 16.0694 3.27778 15.8056 3.5 15.5833L3.58333 15.5C3.63889 14.9722 3.85417 14.5278 4.22917 14.1667C4.60417 13.8056 5.06944 13.625 5.625 13.625C5.70833 13.625 5.97222 13.6806 6.41667 13.7917L6.54167 13.75C6.68056 13.6111 6.86111 13.5069 7.08333 13.4375C7.30556 13.3681 7.54167 13.3333 7.79167 13.3333C8.09722 13.3333 8.36806 13.3819 8.60417 13.4792C8.84028 13.5764 9.02778 13.7222 9.16667 13.9167C9.19444 13.9167 9.21528 13.9236 9.22917 13.9375C9.24306 13.9514 9.26389 13.9583 9.29167 13.9583C9.68056 13.9861 10.0208 14.1042 10.3125 14.3125C10.6042 14.5208 10.8194 14.8056 10.9583 15.1667C11.0139 15.3611 11.0347 15.5486 11.0208 15.7292C11.0069 15.9097 10.9722 16.0833 10.9167 16.25C10.9167 16.2778 10.9306 16.3333 10.9583 16.4167C11.1528 16.6111 11.3056 16.8264 11.4167 17.0625C11.5278 17.2986 11.5833 17.5417 11.5833 17.7917C11.5833 17.9028 11.5 18.1944 11.3333 18.6667C11.3056 18.7222 11.3056 18.7778 11.3333 18.8333L11.4167 19.5C11.4167 20.0833 11.1736 20.5833 10.6875 21C10.2014 21.4167 9.61111 21.625 8.91667 21.625H5.66667ZM33.8333 21.6667C32.9167 21.6667 32.1319 21.3403 31.4792 20.6875C30.8264 20.0347 30.5 19.25 30.5 18.3333C30.5 18 30.5486 17.6875 30.6458 17.3958C30.7431 17.1042 30.875 16.8194 31.0417 16.5417L29.875 15.5C29.5972 15.2778 29.5486 15 29.7292 14.6667C29.9097 14.3333 30.1667 14.1667 30.5 14.1667H33.8333C34.75 14.1667 35.5347 14.4931 36.1875 15.1458C36.8403 15.7986 37.1667 16.5833 37.1667 17.5V18.3333C37.1667 19.25 36.8403 20.0347 36.1875 20.6875C35.5347 21.3403 34.75 21.6667 33.8333 21.6667ZM0.5 30V27.375C0.5 26.1528 1.11806 25.1736 2.35417 24.4375C3.59028 23.7014 5.19444 23.3333 7.16667 23.3333C7.52778 23.3333 7.875 23.3403 8.20833 23.3542C8.54167 23.3681 8.86111 23.4028 9.16667 23.4583C8.77778 24.0139 8.48611 24.6111 8.29167 25.25C8.09722 25.8889 8 26.5694 8 27.2917V30H0.5ZM10.5 30V27.2917C10.5 25.4861 11.4236 24.0278 13.2708 22.9167C15.1181 21.8056 17.5278 21.25 20.5 21.25C23.5 21.25 25.9167 21.8056 27.75 22.9167C29.5833 24.0278 30.5 25.4861 30.5 27.2917V30H10.5ZM33.8333 23.3333C35.8333 23.3333 37.4444 23.7014 38.6667 24.4375C39.8889 25.1736 40.5 26.1528 40.5 27.375V30H33V27.2917C33 26.5694 32.9097 25.8889 32.7292 25.25C32.5486 24.6111 32.2778 24.0139 31.9167 23.4583C32.2222 23.4028 32.5347 23.3681 32.8542 23.3542C33.1736 23.3403 33.5 23.3333 33.8333 23.3333ZM20.5 24.5833C18.9167 24.5833 17.5 24.7917 16.25 25.2083C15 25.625 14.2639 26.1111 14.0417 26.6667H27C26.75 26.1111 26.0069 25.625 24.7708 25.2083C23.5347 24.7917 22.1111 24.5833 20.5 24.5833Z" fill="#009A9F"/>
</g>
</g>
</svg>
