<svg width="41" height="40" viewBox="0 0 41 40" fill="none" xmlns="http://www.w3.org/2000/svg">
<g id="mystery">
<mask id="mask0_11_483" style="mask-type:alpha" maskUnits="userSpaceOnUse" x="0" y="0" width="41" height="40">
<rect id="Bounding box" x="0.5" width="40" height="40" fill="#D9D9D9"/>
</mask>
<g mask="url(#mask0_11_483)">
<path id="mystery_2" d="M18.8334 30.0002C22.0556 30.0002 24.8056 28.8682 27.0834 26.6043C29.3612 24.3404 30.5 21.5835 30.5 18.3335C30.5 15.1113 29.3612 12.3613 27.0834 10.0835C24.8056 7.80572 22.0556 6.66683 18.8334 6.66683C15.5834 6.66683 12.8264 7.80572 10.5625 10.0835C8.29865 12.3613 7.16671 15.1113 7.16671 18.3335C7.16671 21.5835 8.29865 24.3404 10.5625 26.6043C12.8264 28.8682 15.5834 30.0002 18.8334 30.0002ZM18.8334 25.0002C16.5278 25.0002 14.4792 24.3821 12.6875 23.146C10.8959 21.9099 9.61115 20.3057 8.83337 18.3335C9.61115 16.3891 10.8959 14.7918 12.6875 13.5418C14.4792 12.2918 16.5278 11.6668 18.8334 11.6668C21.1112 11.6668 23.1459 12.2918 24.9375 13.5418C26.7292 14.7918 28.0278 16.3891 28.8334 18.3335C28.0278 20.3057 26.7292 21.9099 24.9375 23.146C23.1459 24.3821 21.1112 25.0002 18.8334 25.0002ZM18.8334 22.5002C20.3612 22.5002 21.7639 22.1321 23.0417 21.396C24.3195 20.6599 25.3195 19.6391 26.0417 18.3335C25.3195 17.0557 24.3195 16.0418 23.0417 15.2918C21.7639 14.5418 20.3612 14.1668 18.8334 14.1668C17.2778 14.1668 15.8612 14.5418 14.5834 15.2918C13.3056 16.0418 12.3056 17.0557 11.5834 18.3335C12.3056 19.6391 13.3056 20.6599 14.5834 21.396C15.8612 22.1321 17.2778 22.5002 18.8334 22.5002ZM18.8334 20.8335C19.5278 20.8335 20.1181 20.5974 20.6042 20.1252C21.0903 19.6529 21.3334 19.0557 21.3334 18.3335C21.3334 17.6391 21.0903 17.0488 20.6042 16.5627C20.1181 16.0766 19.5278 15.8335 18.8334 15.8335C18.1112 15.8335 17.5139 16.0766 17.0417 16.5627C16.5695 17.0488 16.3334 17.6391 16.3334 18.3335C16.3334 19.0557 16.5695 19.6529 17.0417 20.1252C17.5139 20.5974 18.1112 20.8335 18.8334 20.8335ZM18.8334 33.3335C16.75 33.3335 14.7987 32.9377 12.9792 32.146C11.1598 31.3543 9.57643 30.2849 8.22921 28.9377C6.88199 27.5904 5.81254 26.0071 5.02087 24.1877C4.22921 22.3682 3.83337 20.4168 3.83337 18.3335C3.83337 16.2779 4.22921 14.3404 5.02087 12.521C5.81254 10.7016 6.88199 9.11127 8.22921 7.75016C9.57643 6.38905 11.1598 5.31266 12.9792 4.521C14.7987 3.72933 16.75 3.3335 18.8334 3.3335C20.8889 3.3335 22.8264 3.72933 24.6459 4.521C26.4653 5.31266 28.0556 6.38905 29.4167 7.75016C30.7778 9.11127 31.8542 10.7016 32.6459 12.521C33.4375 14.3404 33.8334 16.2779 33.8334 18.3335C33.8334 20.1113 33.5417 21.7918 32.9584 23.3752C32.375 24.9585 31.5695 26.4029 30.5417 27.7085L37.1667 34.3335L34.7917 36.6668L28.1667 30.0835C26.8612 31.1113 25.4167 31.9099 23.8334 32.4793C22.25 33.0488 20.5834 33.3335 18.8334 33.3335Z" fill="#009A9F"/>
</g>
</g>
</svg>
