<svg width="199" height="161" viewBox="0 0 199 161" fill="none" xmlns="http://www.w3.org/2000/svg">
<path id="Ornament 82" fillRule="evenodd" clipRule="evenodd" d="M99.5 161C100.771 161 101.802 159.97 101.802 158.7L101.802 2.30001C101.802 1.0297 100.771 6.71509e-06 99.5 6.60393e-06C98.2286 6.49278e-06 97.1977 1.0297 97.1977 2.30001L97.1977 158.7C97.1977 159.97 98.2285 161 99.5 161ZM115.616 138C116.888 138 117.919 136.97 117.919 135.7L117.919 2.30001C117.919 1.0297 116.888 8.12402e-06 115.616 8.01286e-06C114.345 7.90171e-06 113.314 1.0297 113.314 2.30001L113.314 135.7C113.314 136.97 114.345 138 115.616 138ZM131.733 115C133.004 115 134.035 113.97 134.035 112.7L134.035 2.30001C134.035 1.0297 133.004 9.53295e-06 131.733 9.42179e-06C130.461 9.31064e-06 129.43 1.0297 129.43 2.30001L129.43 112.7C129.43 113.97 130.461 115 131.733 115ZM147.849 92C149.12 92 150.151 90.9703 150.151 89.7L150.151 2.30001C150.151 1.0297 149.12 1.09419e-05 147.849 1.08307e-05C146.577 1.07196e-05 145.547 1.0297 145.547 2.30001L145.547 89.7C145.547 90.9703 146.577 92 147.849 92ZM163.965 69C165.237 69 166.267 67.9703 166.267 66.7L166.267 2.30002C166.267 1.02971 165.237 1.23508e-05 163.965 1.22397e-05C162.694 1.21285e-05 161.663 1.02971 161.663 2.30002L161.663 66.7C161.663 67.9703 162.694 69 163.965 69ZM180.081 46C181.353 46 182.384 44.9703 182.384 43.7L182.384 2.30002C182.384 1.02971 181.353 1.37597e-05 180.081 1.36486e-05C178.81 1.35374e-05 177.779 1.02971 177.779 2.30002L177.779 43.7C177.779 44.9703 178.81 46 180.081 46ZM198.5 20.7C198.5 21.9703 197.469 23 196.198 23C194.926 23 193.895 21.9703 193.895 20.7L193.895 2.30002C193.895 1.02971 194.926 1.49464e-05 196.198 1.50575e-05C197.469 1.51687e-05 198.5 1.02971 198.5 2.30002L198.5 20.7ZM0.499997 20.7C0.499997 21.9703 1.53088 23 2.80232 23C4.07377 23 5.10466 21.9703 5.10466 20.7L5.10466 2.3C5.10466 1.02969 4.07378 -1.73849e-06 2.80232 -1.84965e-06C1.53088 -1.9608e-06 0.499999 1.02969 0.499999 2.3L0.499997 20.7ZM16.6163 43.7C16.6163 44.9703 17.6472 46 18.9186 46C20.1901 46 21.2209 44.9703 21.2209 43.7L21.2209 2.3C21.2209 1.02969 20.1901 -3.29562e-07 18.9186 -4.40716e-07C17.6472 -5.5187e-07 16.6163 1.02969 16.6163 2.3L16.6163 43.7ZM32.7326 66.7C32.7326 67.9703 33.7634 69 35.0349 69C36.3063 69 37.3372 67.9703 37.3372 66.7L37.3372 2.3C37.3372 1.02969 36.3063 1.07937e-06 35.0349 9.68213e-07C33.7634 8.57061e-07 32.7326 1.02969 32.7326 2.3L32.7326 66.7ZM48.8488 89.7C48.8488 90.9703 49.8797 92 51.1512 92C52.4226 92 53.4535 90.9703 53.4535 89.7L53.4535 2.30001C53.4535 1.0297 52.4226 2.4883e-06 51.1512 2.37714e-06C49.8797 2.26599e-06 48.8488 1.0297 48.8488 2.30001L48.8488 89.7ZM64.9651 112.7C64.9651 113.97 65.996 115 67.2674 115C68.5389 115 69.5698 113.97 69.5698 112.7L69.5698 2.30001C69.5698 1.0297 68.5389 3.89723e-06 67.2675 3.78607e-06C65.996 3.67492e-06 64.9651 1.0297 64.9651 2.30001L64.9651 112.7ZM81.0814 135.7C81.0814 136.97 82.1123 138 83.3837 138C84.6552 138 85.686 136.97 85.686 135.7L85.6861 2.30001C85.6861 1.0297 84.6552 5.30616e-06 83.3837 5.195e-06C82.1123 5.08385e-06 81.0814 1.0297 81.0814 2.30001L81.0814 135.7Z" fill="#009A9F"/>
</svg>
