<svg width="199" height="161" viewBox="0 0 199 161" fill="none" xmlns="http://www.w3.org/2000/svg">
<path id="Ornament 83" fillRule="evenodd" clipRule="evenodd" d="M99.5 -1.73097e-05C98.2286 -1.70874e-05 97.1977 1.02975 97.1977 2.29998L97.1977 158.7C97.1977 159.97 98.2286 161 99.5 161C100.771 161 101.802 159.97 101.802 158.7L101.802 2.29998C101.802 1.02975 100.771 -1.7532e-05 99.5 -1.73097e-05ZM83.3837 23C82.1123 23 81.0814 24.0297 81.0814 25.3L81.0814 158.7C81.0814 159.97 82.1123 161 83.3838 161C84.6552 161 85.6861 159.97 85.6861 158.7L85.6861 25.3C85.6861 24.0297 84.6552 23 83.3837 23ZM67.2675 46C65.996 46 64.9651 47.0297 64.9651 48.3L64.9651 158.7C64.9651 159.97 65.996 161 67.2675 161C68.5389 161 69.5698 159.97 69.5698 158.7L69.5698 48.3C69.5698 47.0297 68.5389 46 67.2675 46ZM51.1512 69C49.8797 69 48.8489 70.0297 48.8489 71.3L48.8489 158.7C48.8489 159.97 49.8797 161 51.1512 161C52.4226 161 53.4535 159.97 53.4535 158.7L53.4535 71.3C53.4535 70.0297 52.4226 69 51.1512 69ZM35.0349 92C33.7635 92 32.7326 93.0297 32.7326 94.3L32.7326 158.7C32.7326 159.97 33.7635 161 35.0349 161C36.3064 161 37.3372 159.97 37.3372 158.7L37.3372 94.3C37.3372 93.0297 36.3064 92 35.0349 92ZM18.9186 115C17.6472 115 16.6163 116.03 16.6163 117.3L16.6163 158.7C16.6163 159.97 17.6472 161 18.9186 161C20.1901 161 21.221 159.97 21.221 158.7L21.221 117.3C21.221 116.03 20.1901 115 18.9186 115ZM0.500025 140.3C0.500024 139.03 1.5309 138 2.80235 138C4.0738 138 5.10468 139.03 5.10468 140.3L5.10468 158.7C5.10468 159.97 4.0738 161 2.80235 161C1.5309 161 0.500028 159.97 0.500028 158.7L0.500025 140.3ZM198.5 140.3C198.5 139.03 197.469 138 196.198 138C194.926 138 193.895 139.03 193.895 140.3L193.895 158.7C193.895 159.97 194.926 161 196.198 161C197.469 161 198.5 159.97 198.5 158.7L198.5 140.3ZM182.384 117.3C182.384 116.03 181.353 115 180.081 115C178.81 115 177.779 116.03 177.779 117.3L177.779 158.7C177.779 159.97 178.81 161 180.081 161C181.353 161 182.384 159.97 182.384 158.7L182.384 117.3ZM166.267 94.3C166.267 93.0296 165.237 92 163.965 92C162.694 92 161.663 93.0297 161.663 94.3L161.663 158.7C161.663 159.97 162.694 161 163.965 161C165.237 161 166.267 159.97 166.267 158.7L166.267 94.3ZM150.151 71.3C150.151 70.0297 149.12 69 147.849 69C146.577 69 145.547 70.0297 145.547 71.3L145.547 158.7C145.547 159.97 146.577 161 147.849 161C149.12 161 150.151 159.97 150.151 158.7L150.151 71.3ZM134.035 48.3C134.035 47.0297 133.004 46 131.733 46C130.461 46 129.43 47.0297 129.43 48.3L129.43 158.7C129.43 159.97 130.461 161 131.733 161C133.004 161 134.035 159.97 134.035 158.7L134.035 48.3ZM117.919 25.3C117.919 24.0297 116.888 23 115.616 23C114.345 23 113.314 24.0297 113.314 25.3L113.314 158.7C113.314 159.97 114.345 161 115.616 161C116.888 161 117.919 159.97 117.919 158.7L117.919 25.3Z" fill="#009A9F"/>
</svg>
