<svg width="17" height="16" viewBox="0 0 17 16" fill="none" xmlns="http://www.w3.org/2000/svg">
<path d="M4.76679 13.7331C5.76679 14.3331 6.96679 14.6665 8.16679 14.6665C11.8335 14.6665 14.8335 11.6665 14.8335 7.9998C14.8335 4.33313 11.8335 1.33313 8.16679 1.33313C4.50012 1.33313 1.50012 4.33313 1.50012 7.9998C1.50012 9.1998 1.83346 10.3331 2.36679 11.3331L1.79375 13.5371C1.66393 14.0364 2.12607 14.4876 2.62211 14.3459L4.76679 13.7331Z" stroke="#009A9F" stroke-miterlimit="10" stroke-linecap="round" stroke-linejoin="round"/>
<path d="M11.1667 9.89888C11.1667 10.0069 11.1427 10.1179 11.0916 10.2259C11.0406 10.3339 10.9745 10.4359 10.8873 10.5319C10.7401 10.6939 10.5779 10.8109 10.3946 10.8859C10.2143 10.9609 10.019 10.9999 9.80871 10.9999C9.50225 10.9999 9.17476 10.9279 8.82924 10.7809C8.48372 10.6339 8.13821 10.4359 7.79569 10.1869C7.45017 9.93488 7.12268 9.65588 6.81021 9.34688C6.50075 9.03488 6.22133 8.70788 5.97196 8.36588C5.72559 8.02388 5.52729 7.68188 5.38307 7.34288C5.23886 7.00088 5.16675 6.67388 5.16675 6.36188C5.16675 6.15788 5.2028 5.96288 5.27491 5.78288C5.34702 5.59988 5.46119 5.43188 5.62043 5.28188C5.81272 5.09288 6.02303 4.99988 6.24537 4.99988C6.32949 4.99988 6.41362 5.01788 6.48873 5.05388C6.56685 5.08988 6.63595 5.14388 6.69003 5.22188L7.38708 6.20288C7.44116 6.27788 7.48022 6.34688 7.50726 6.41288C7.5343 6.47588 7.54932 6.53888 7.54932 6.59588C7.54932 6.66788 7.52829 6.73988 7.48623 6.80888C7.44717 6.87788 7.39008 6.94988 7.31797 7.02188L7.08963 7.25888C7.05658 7.29188 7.04156 7.33088 7.04156 7.37888C7.04156 7.40288 7.04456 7.42388 7.05057 7.44788C7.05959 7.47188 7.0686 7.48988 7.07461 7.50788C7.12869 7.60688 7.22183 7.73588 7.35403 7.89188C7.48923 8.04788 7.63345 8.20688 7.78968 8.36588C7.95193 8.52488 8.10816 8.67188 8.2674 8.80688C8.42363 8.93888 8.55283 9.02888 8.65498 9.08288C8.67 9.08888 8.68803 9.09788 8.70906 9.10688C8.7331 9.11588 8.75713 9.11888 8.78417 9.11888C8.83525 9.11888 8.87431 9.10088 8.90736 9.06788L9.1357 8.84288C9.21081 8.76788 9.28292 8.71088 9.35203 8.67488C9.42113 8.63288 9.49023 8.61188 9.56535 8.61188C9.62243 8.61188 9.68252 8.62388 9.74862 8.65088C9.81472 8.67788 9.88382 8.71688 9.95894 8.76788L10.9534 9.47288C11.0315 9.52688 11.0856 9.58988 11.1187 9.66488C11.1487 9.73988 11.1667 9.81488 11.1667 9.89888Z" stroke="#009A9F" stroke-miterlimit="10"/>
</svg>
