<svg width="16" height="16" viewBox="0 0 16 16" fill="none" xmlns="http://www.w3.org/2000/svg">
<path d="M14.7549 15.6914C13.0188 15.6914 11.3035 15.3129 9.60905 14.556C7.91461 13.799 6.37294 12.7261 4.98405 11.3372C3.59516 9.94835 2.52224 8.40668 1.7653 6.71224C1.00836 5.01779 0.629883 3.30252 0.629883 1.56641C0.629883 1.31641 0.713216 1.10807 0.879883 0.941406C1.04655 0.77474 1.25488 0.691406 1.50488 0.691406H4.87988C5.07433 0.691406 5.24794 0.757378 5.40072 0.889323C5.55349 1.02127 5.64377 1.17752 5.67155 1.35807L6.21322 4.27474C6.24099 4.49696 6.23405 4.68446 6.19238 4.83724C6.15072 4.99002 6.07433 5.12196 5.96322 5.23307L3.94238 7.27474C4.22016 7.78863 4.55002 8.28516 4.93197 8.76432C5.31391 9.24349 5.73405 9.7053 6.19238 10.1497C6.62294 10.5803 7.07433 10.9796 7.54655 11.3477C8.01877 11.7157 8.51877 12.0525 9.04655 12.3581L11.0049 10.3997C11.1299 10.2747 11.2931 10.181 11.4945 10.1185C11.6959 10.056 11.8938 10.0386 12.0882 10.0664L14.9632 10.6497C15.1577 10.7053 15.3174 10.806 15.4424 10.9518C15.5674 11.0977 15.6299 11.2609 15.6299 11.4414V14.8164C15.6299 15.0664 15.5465 15.2747 15.3799 15.4414C15.2132 15.6081 15.0049 15.6914 14.7549 15.6914Z" fill="#FF784B"/>
</svg>
