<svg width="16" height="18" viewBox="0 0 16 18" fill="none" xmlns="http://www.w3.org/2000/svg">
<path d="M2.23161 17.5249C1.77327 17.5249 1.38091 17.3617 1.05452 17.0353C0.728136 16.7089 0.564941 16.3166 0.564941 15.8582V5.85824C0.564941 5.3999 0.728136 5.00754 1.05452 4.68115C1.38091 4.35476 1.77327 4.19157 2.23161 4.19157H3.89827C3.89827 3.03879 4.30452 2.05615 5.11702 1.24365C5.92952 0.431152 6.91216 0.0249023 8.06494 0.0249023C9.21772 0.0249023 10.2004 0.431152 11.0129 1.24365C11.8254 2.05615 12.2316 3.03879 12.2316 4.19157H13.8983C14.3566 4.19157 14.749 4.35476 15.0754 4.68115C15.4017 5.00754 15.5649 5.3999 15.5649 5.85824V15.8582C15.5649 16.3166 15.4017 16.7089 15.0754 17.0353C14.749 17.3617 14.3566 17.5249 13.8983 17.5249H2.23161ZM2.23161 15.8582H13.8983V5.85824H2.23161V15.8582ZM8.06494 10.8582C9.21772 10.8582 10.2004 10.452 11.0129 9.63949C11.8254 8.82699 12.2316 7.84435 12.2316 6.69157H10.5649C10.5649 7.38601 10.3219 7.97629 9.83577 8.4624C9.34966 8.94851 8.75939 9.19157 8.06494 9.19157C7.3705 9.19157 6.78022 8.94851 6.29411 8.4624C5.808 7.97629 5.56494 7.38601 5.56494 6.69157H3.89827C3.89827 7.84435 4.30452 8.82699 5.11702 9.63949C5.92952 10.452 6.91216 10.8582 8.06494 10.8582ZM5.56494 4.19157H10.5649C10.5649 3.49712 10.3219 2.90685 9.83577 2.42074C9.34966 1.93462 8.75939 1.69157 8.06494 1.69157C7.3705 1.69157 6.78022 1.93462 6.29411 2.42074C5.808 2.90685 5.56494 3.49712 5.56494 4.19157Z" fill="white"/>
</svg>
