<svg width="16" height="14" viewBox="0 0 16 14" fill="none" xmlns="http://www.w3.org/2000/svg">
<path d="M4.10173 13.8582C3.68506 13.8582 3.33089 13.7124 3.03923 13.4207C2.74756 13.1291 2.60173 12.7749 2.60173 12.3582C2.60173 12.0666 2.68506 11.7923 2.85173 11.5353C3.01839 11.2784 3.24061 11.0943 3.51839 10.9832L6.76839 9.69157V7.81657C6.01839 8.69157 5.14686 9.36171 4.15381 9.82699C3.16075 10.2923 2.08784 10.5249 0.935059 10.5249V8.85824C1.8795 8.85824 2.73714 8.66379 3.50798 8.2749C4.27881 7.88601 4.97673 7.33046 5.60173 6.60824L6.72673 5.2749C6.89339 5.08046 7.08784 4.93462 7.31006 4.8374C7.53228 4.74018 7.76839 4.69157 8.01839 4.69157H8.85173C9.10172 4.69157 9.33784 4.74018 9.56006 4.8374C9.78228 4.93462 9.97673 5.08046 10.1434 5.2749L11.2684 6.60824C11.8934 7.33046 12.5913 7.88601 13.3621 8.2749C14.133 8.66379 14.9906 8.85824 15.9351 8.85824V10.5249C14.7823 10.5249 13.7094 10.2923 12.7163 9.82699C11.7233 9.36171 10.8517 8.69157 10.1017 7.81657V9.69157L13.3517 10.9832C13.6295 11.0943 13.8517 11.2784 14.0184 11.5353C14.1851 11.7923 14.2684 12.0666 14.2684 12.3582C14.2684 12.7749 14.1226 13.1291 13.8309 13.4207C13.5392 13.7124 13.1851 13.8582 12.7684 13.8582H6.76839V13.4416C6.76839 13.0805 6.88645 12.7818 7.12256 12.5457C7.35867 12.3096 7.65728 12.1916 8.01839 12.1916H10.5184C10.6434 12.1916 10.7441 12.1534 10.8205 12.077C10.8969 12.0006 10.9351 11.8999 10.9351 11.7749C10.9351 11.6499 10.8969 11.5492 10.8205 11.4728C10.7441 11.3964 10.6434 11.3582 10.5184 11.3582H8.01839C7.43506 11.3582 6.942 11.5596 6.53923 11.9624C6.13645 12.3652 5.93506 12.8582 5.93506 13.4416V13.8582H4.10173ZM8.43506 3.85824C7.97673 3.85824 7.58436 3.69504 7.25798 3.36865C6.93159 3.04226 6.76839 2.6499 6.76839 2.19157C6.76839 1.73324 6.93159 1.34087 7.25798 1.01449C7.58436 0.688097 7.97673 0.524902 8.43506 0.524902C8.89339 0.524902 9.28575 0.688097 9.61214 1.01449C9.93853 1.34087 10.1017 1.73324 10.1017 2.19157C10.1017 2.6499 9.93853 3.04226 9.61214 3.36865C9.28575 3.69504 8.89339 3.85824 8.43506 3.85824Z" fill="white"/>
</svg>
