<svg width="60" height="60" viewBox="0 0 60 60" fill="none" xmlns="http://www.w3.org/2000/svg">
<rect x="0.5" y="0.5" width="59" height="59" rx="29.5" stroke="#003638"/>
<mask id="mask0_1208_3114" style="mask-type:alpha" maskUnits="userSpaceOnUse" x="14" y="14" width="32" height="32">
<rect x="14" y="14" width="32" height="32" fill="#D9D9D9"/>
</mask>
<g mask="url(#mask0_1208_3114)">
<path d="M15.3333 38.0003L15.9999 35.3337H23.3333L22.6666 38.0003H15.3333ZM17.9999 32.667L18.6666 30.0003H27.3333L26.6666 32.667H17.9999ZM38.7666 40.667L39.4333 35.3337L40.3999 27.3337L40.7333 24.7003L38.7666 40.667ZM21.9999 43.3337C21.2666 43.3337 20.6388 43.0725 20.1166 42.5503C19.5944 42.0281 19.3333 41.4003 19.3333 40.667H38.7666L40.7333 24.7003H37.0666L36.6999 27.5337C36.6555 27.9114 36.4888 28.2059 36.1999 28.417C35.911 28.6281 35.5777 28.7114 35.1999 28.667C34.8221 28.6225 34.5277 28.4614 34.3166 28.1837C34.1055 27.9059 34.0221 27.5781 34.0666 27.2003L34.3666 24.7003H29.0666L28.6999 27.5003C28.6555 27.8781 28.4888 28.1781 28.1999 28.4003C27.911 28.6225 27.5777 28.7114 27.1999 28.667C26.8221 28.6225 26.5221 28.4559 26.2999 28.167C26.0777 27.8781 25.9888 27.5448 26.0333 27.167L26.3333 24.7003H21.3333C21.4221 23.9448 21.711 23.3059 22.1999 22.7837C22.6888 22.2614 23.2888 22.0003 23.9999 22.0003H26.6666C26.8444 20.3337 27.4166 19.0281 28.3833 18.0837C29.3499 17.1392 30.6666 16.667 32.3333 16.667C33.7555 16.667 34.9388 17.1948 35.8833 18.2503C36.8277 19.3059 37.2888 20.5559 37.2666 22.0003H40.6666C41.4666 22.0225 42.1333 22.3337 42.6666 22.9337C43.1999 23.5337 43.411 24.2337 43.2999 25.0337L41.2999 41.0337C41.211 41.7003 40.9166 42.2503 40.4166 42.6837C39.9166 43.117 39.3333 43.3337 38.6666 43.3337H21.9999ZM29.3333 22.0003H34.6333C34.6555 21.267 34.4055 20.6392 33.8833 20.117C33.361 19.5948 32.7333 19.3337 31.9999 19.3337C31.2221 19.3337 30.6055 19.5725 30.1499 20.0503C29.6944 20.5281 29.4221 21.1781 29.3333 22.0003Z" fill="#003638"/>
</g>
</svg>
