<svg width="60" height="61" viewBox="0 0 60 61" fill="none" xmlns="http://www.w3.org/2000/svg">
<rect x="0.5" y="1" width="59" height="59" rx="29.5" stroke="#003638"/>
<mask id="mask0_1208_3171" style="mask-type:alpha" maskUnits="userSpaceOnUse" x="14" y="14" width="32" height="33">
<rect x="14" y="14.5" width="32" height="32" fill="#D9D9D9"/>
</mask>
<g mask="url(#mask0_1208_3171)">
<path d="M21.7998 37.3003C22.9332 36.4337 24.1998 35.7503 25.5998 35.2503C26.9998 34.7503 28.4665 34.5003 29.9998 34.5003C31.5332 34.5003 32.9998 34.7503 34.3998 35.2503C35.7998 35.7503 37.0665 36.4337 38.1998 37.3003C38.9776 36.3892 39.5832 35.3559 40.0165 34.2003C40.4498 33.0448 40.6665 31.8114 40.6665 30.5003C40.6665 27.5448 39.6276 25.0281 37.5498 22.9503C35.4721 20.8725 32.9554 19.8337 29.9998 19.8337C27.0443 19.8337 24.5276 20.8725 22.4498 22.9503C20.3721 25.0281 19.3332 27.5448 19.3332 30.5003C19.3332 31.8114 19.5498 33.0448 19.9832 34.2003C20.4165 35.3559 21.0221 36.3892 21.7998 37.3003ZM29.9998 31.8337C28.6887 31.8337 27.5832 31.3837 26.6832 30.4837C25.7832 29.5837 25.3332 28.4781 25.3332 27.167C25.3332 25.8559 25.7832 24.7503 26.6832 23.8503C27.5832 22.9503 28.6887 22.5003 29.9998 22.5003C31.3109 22.5003 32.4165 22.9503 33.3165 23.8503C34.2165 24.7503 34.6665 25.8559 34.6665 27.167C34.6665 28.4781 34.2165 29.5837 33.3165 30.4837C32.4165 31.3837 31.3109 31.8337 29.9998 31.8337ZM29.9998 43.8337C28.1554 43.8337 26.4221 43.4837 24.7998 42.7837C23.1776 42.0837 21.7665 41.1337 20.5665 39.9337C19.3665 38.7337 18.4165 37.3225 17.7165 35.7003C17.0165 34.0781 16.6665 32.3448 16.6665 30.5003C16.6665 28.6559 17.0165 26.9225 17.7165 25.3003C18.4165 23.6781 19.3665 22.267 20.5665 21.067C21.7665 19.867 23.1776 18.917 24.7998 18.217C26.4221 17.517 28.1554 17.167 29.9998 17.167C31.8443 17.167 33.5776 17.517 35.1998 18.217C36.8221 18.917 38.2332 19.867 39.4332 21.067C40.6332 22.267 41.5832 23.6781 42.2832 25.3003C42.9832 26.9225 43.3332 28.6559 43.3332 30.5003C43.3332 32.3448 42.9832 34.0781 42.2832 35.7003C41.5832 37.3225 40.6332 38.7337 39.4332 39.9337C38.2332 41.1337 36.8221 42.0837 35.1998 42.7837C33.5776 43.4837 31.8443 43.8337 29.9998 43.8337ZM29.9998 41.167C31.1776 41.167 32.2887 40.9948 33.3332 40.6503C34.3776 40.3059 35.3332 39.8114 36.1998 39.167C35.3332 38.5225 34.3776 38.0281 33.3332 37.6837C32.2887 37.3392 31.1776 37.167 29.9998 37.167C28.8221 37.167 27.7109 37.3392 26.6665 37.6837C25.6221 38.0281 24.6665 38.5225 23.7998 39.167C24.6665 39.8114 25.6221 40.3059 26.6665 40.6503C27.7109 40.9948 28.8221 41.167 29.9998 41.167ZM29.9998 29.167C30.5776 29.167 31.0554 28.9781 31.4332 28.6003C31.8109 28.2225 31.9998 27.7448 31.9998 27.167C31.9998 26.5892 31.8109 26.1114 31.4332 25.7337C31.0554 25.3559 30.5776 25.167 29.9998 25.167C29.4221 25.167 28.9443 25.3559 28.5665 25.7337C28.1887 26.1114 27.9998 26.5892 27.9998 27.167C27.9998 27.7448 28.1887 28.2225 28.5665 28.6003C28.9443 28.9781 29.4221 29.167 29.9998 29.167Z" fill="#1C1B1F"/>
</g>
</svg>
