<svg width="60" height="61" viewBox="0 0 60 61" fill="none" xmlns="http://www.w3.org/2000/svg">
<rect x="0.5" y="1" width="59" height="59" rx="29.5" stroke="#003638"/>
<mask id="mask0_1208_3139" style="mask-type:alpha" maskUnits="userSpaceOnUse" x="14" y="14" width="32" height="33">
<rect x="14" y="14.5" width="32" height="32" fill="#D9D9D9"/>
</mask>
<g mask="url(#mask0_1208_3139)">
<path d="M22 43.8337C20.8889 43.8337 19.9444 43.4448 19.1667 42.667C18.3889 41.8892 18 40.9448 18 39.8337V35.8337H22V17.167H42V39.8337C42 40.9448 41.6111 41.8892 40.8333 42.667C40.0556 43.4448 39.1111 43.8337 38 43.8337H22ZM38 41.167C38.3778 41.167 38.6944 41.0392 38.95 40.7837C39.2056 40.5281 39.3333 40.2114 39.3333 39.8337V19.8337H24.6667V35.8337H36.6667V39.8337C36.6667 40.2114 36.7944 40.5281 37.05 40.7837C37.3056 41.0392 37.6222 41.167 38 41.167ZM26 26.5003V23.8337H38V26.5003H26ZM26 30.5003V27.8337H38V30.5003H26ZM22 41.167H34V38.5003H20.6667V39.8337C20.6667 40.2114 20.7944 40.5281 21.05 40.7837C21.3056 41.0392 21.6222 41.167 22 41.167ZM22 41.167H20.6667H34H22Z" fill="#1C1B1F"/>
</g>
</svg>
