<svg width="60" height="60" viewBox="0 0 60 60" fill="none" xmlns="http://www.w3.org/2000/svg">
<rect x="0.5" y="0.5" width="59" height="59" rx="29.5" stroke="#003638"/>
<mask id="mask0_1208_3151" style="mask-type:alpha" maskUnits="userSpaceOnUse" x="14" y="14" width="32" height="32">
<rect x="14" y="14" width="32" height="32" fill="#D9D9D9"/>
</mask>
<g mask="url(#mask0_1208_3151)">
<path d="M20.6667 42C19.9333 42 19.3056 41.7389 18.7833 41.2167C18.2611 40.6944 18 40.0667 18 39.3333V20.6667C18 19.9333 18.2611 19.3056 18.7833 18.7833C19.3056 18.2611 19.9333 18 20.6667 18H39.3333C40.0667 18 40.6944 18.2611 41.2167 18.7833C41.7389 19.3056 42 19.9333 42 20.6667V24H39.3333V20.6667H20.6667V39.3333H39.3333V36H42V39.3333C42 40.0667 41.7389 40.6944 41.2167 41.2167C40.6944 41.7389 40.0667 42 39.3333 42H20.6667ZM31.3333 36.6667C30.6 36.6667 29.9722 36.4056 29.45 35.8833C28.9278 35.3611 28.6667 34.7333 28.6667 34V26C28.6667 25.2667 28.9278 24.6389 29.45 24.1167C29.9722 23.5944 30.6 23.3333 31.3333 23.3333H40.6667C41.4 23.3333 42.0278 23.5944 42.55 24.1167C43.0722 24.6389 43.3333 25.2667 43.3333 26V34C43.3333 34.7333 43.0722 35.3611 42.55 35.8833C42.0278 36.4056 41.4 36.6667 40.6667 36.6667H31.3333ZM40.6667 34V26H31.3333V34H40.6667ZM35.3333 32C35.8889 32 36.3611 31.8056 36.75 31.4167C37.1389 31.0278 37.3333 30.5556 37.3333 30C37.3333 29.4444 37.1389 28.9722 36.75 28.5833C36.3611 28.1944 35.8889 28 35.3333 28C34.7778 28 34.3056 28.1944 33.9167 28.5833C33.5278 28.9722 33.3333 29.4444 33.3333 30C33.3333 30.5556 33.5278 31.0278 33.9167 31.4167C34.3056 31.8056 34.7778 32 35.3333 32Z" fill="#1C1B1F"/>
</g>
</svg>
