<svg width="60" height="60" viewBox="0 0 60 60" fill="none" xmlns="http://www.w3.org/2000/svg">
<rect x="0.5" y="0.5" width="59" height="59" rx="29.5" stroke="#003638"/>
<mask id="mask0_1208_3161" style="mask-type:alpha" maskUnits="userSpaceOnUse" x="14" y="14" width="32" height="32">
<rect x="14" y="14" width="32" height="32" fill="#D9D9D9"/>
</mask>
<g mask="url(#mask0_1208_3161)">
<path d="M19.3333 41.9997V29.4997L16.9333 31.333L15.3333 29.1997L19.3333 26.133V21.9997H21.9999V24.0997L29.9999 17.9997L44.6666 29.1997L43.0666 31.2997L40.6666 29.4997V41.9997H19.3333ZM21.9999 39.333H28.6666V33.9997H31.3333V39.333H37.9999V27.4663L29.9999 21.3663L21.9999 27.4663V39.333ZM19.3333 20.6663C19.3333 19.5552 19.7221 18.6108 20.4999 17.833C21.2777 17.0552 22.2221 16.6663 23.3333 16.6663C23.711 16.6663 24.0277 16.5386 24.2833 16.283C24.5388 16.0275 24.6666 15.7108 24.6666 15.333H27.3333C27.3333 16.4441 26.9444 17.3886 26.1666 18.1663C25.3888 18.9441 24.4444 19.333 23.3333 19.333C22.9555 19.333 22.6388 19.4608 22.3833 19.7163C22.1277 19.9719 21.9999 20.2886 21.9999 20.6663H19.3333Z" fill="#1C1B1F"/>
</g>
</svg>
