<svg width="11" height="14" viewBox="0 0 11 14" fill="none" xmlns="http://www.w3.org/2000/svg">
<path d="M5.40915 6.99987C5.75915 6.99987 6.05877 6.87525 6.30801 6.626C6.55725 6.37676 6.68187 6.07714 6.68187 5.72714C6.68187 5.37714 6.55725 5.07752 6.30801 4.82828C6.05877 4.57903 5.75915 4.45441 5.40915 4.45441C5.05915 4.45441 4.75953 4.57903 4.51028 4.82828C4.26104 5.07752 4.13642 5.37714 4.13642 5.72714C4.13642 6.07714 4.26104 6.37676 4.51028 6.626C4.75953 6.87525 5.05915 6.99987 5.40915 6.99987ZM5.40915 11.6771C6.70309 10.4893 7.66294 9.41009 8.28869 8.43964C8.91445 7.46918 9.22733 6.60744 9.22733 5.85441C9.22733 4.69835 8.85877 3.75176 8.12165 3.01464C7.38453 2.27752 6.48036 1.90896 5.40915 1.90896C4.33793 1.90896 3.43377 2.27752 2.69665 3.01464C1.95953 3.75176 1.59096 4.69835 1.59096 5.85441C1.59096 6.60744 1.90384 7.46918 2.5296 8.43964C3.15536 9.41009 4.11521 10.4893 5.40915 11.6771ZM5.40915 13.3635C3.70157 11.9105 2.42619 10.5609 1.58301 9.31464C0.739828 8.06843 0.318237 6.91502 0.318237 5.85441C0.318237 4.2635 0.82998 2.99608 1.85346 2.05214C2.87695 1.1082 4.06218 0.63623 5.40915 0.63623C6.75612 0.63623 7.94134 1.1082 8.96483 2.05214C9.98831 2.99608 10.5001 4.2635 10.5001 5.85441C10.5001 6.91502 10.0785 8.06843 9.23528 9.31464C8.3921 10.5609 7.11672 11.9105 5.40915 13.3635Z" fill="#009A9F"/>
</svg>
