<svg width="14" height="14" viewBox="0 0 14 14" fill="none" xmlns="http://www.w3.org/2000/svg">
<mask id="mask0_1133_1401" style="mask-type:alpha" maskUnits="userSpaceOnUse" x="0" y="0" width="14" height="14">
<rect width="14" height="14" fill="#D9D9D9"/>
</mask>
<g mask="url(#mask0_1133_1401)">
<path d="M3.41246 9.97484C3.90829 9.59567 4.46246 9.29671 5.07496 9.07796C5.68746 8.85921 6.32913 8.74984 6.99996 8.74984C7.67079 8.74984 8.31246 8.85921 8.92496 9.07796C9.53746 9.29671 10.0916 9.59567 10.5875 9.97484C10.9277 9.57623 11.1927 9.12414 11.3823 8.61859C11.5718 8.11303 11.6666 7.57345 11.6666 6.99984C11.6666 5.70678 11.2121 4.60574 10.3031 3.69671C9.39406 2.78768 8.29302 2.33317 6.99996 2.33317C5.7069 2.33317 4.60586 2.78768 3.69683 3.69671C2.78781 4.60574 2.33329 5.70678 2.33329 6.99984C2.33329 7.57345 2.42808 8.11303 2.61767 8.61859C2.80725 9.12414 3.07218 9.57623 3.41246 9.97484ZM6.99996 7.58317C6.42635 7.58317 5.94267 7.3863 5.54892 6.99255C5.15517 6.5988 4.95829 6.11512 4.95829 5.5415C4.95829 4.96789 5.15517 4.48421 5.54892 4.09046C5.94267 3.69671 6.42635 3.49984 6.99996 3.49984C7.57357 3.49984 8.05725 3.69671 8.451 4.09046C8.84475 4.48421 9.04163 4.96789 9.04163 5.5415C9.04163 6.11512 8.84475 6.5988 8.451 6.99255C8.05725 7.3863 7.57357 7.58317 6.99996 7.58317ZM6.99996 12.8332C6.19302 12.8332 5.43468 12.68 4.72496 12.3738C4.01524 12.0675 3.39788 11.6519 2.87288 11.1269C2.34788 10.6019 1.93225 9.98456 1.626 9.27484C1.31975 8.56512 1.16663 7.80678 1.16663 6.99984C1.16663 6.19289 1.31975 5.43456 1.626 4.72484C1.93225 4.01512 2.34788 3.39775 2.87288 2.87275C3.39788 2.34775 4.01524 1.93213 4.72496 1.62588C5.43468 1.31963 6.19302 1.1665 6.99996 1.1665C7.8069 1.1665 8.56524 1.31963 9.27496 1.62588C9.98468 1.93213 10.602 2.34775 11.127 2.87275C11.652 3.39775 12.0677 4.01512 12.3739 4.72484C12.6802 5.43456 12.8333 6.19289 12.8333 6.99984C12.8333 7.80678 12.6802 8.56512 12.3739 9.27484C12.0677 9.98456 11.652 10.6019 11.127 11.1269C10.602 11.6519 9.98468 12.0675 9.27496 12.3738C8.56524 12.68 7.8069 12.8332 6.99996 12.8332ZM6.99996 11.6665C7.51524 11.6665 8.00135 11.5912 8.45829 11.4405C8.91524 11.2898 9.33329 11.0734 9.71246 10.7915C9.33329 10.5096 8.91524 10.2932 8.45829 10.1425C8.00135 9.99185 7.51524 9.9165 6.99996 9.9165C6.48468 9.9165 5.99857 9.99185 5.54163 10.1425C5.08468 10.2932 4.66663 10.5096 4.28746 10.7915C4.66663 11.0734 5.08468 11.2898 5.54163 11.4405C5.99857 11.5912 6.48468 11.6665 6.99996 11.6665ZM6.99996 6.4165C7.25274 6.4165 7.46177 6.33387 7.62704 6.16859C7.79232 6.00331 7.87496 5.79428 7.87496 5.5415C7.87496 5.28873 7.79232 5.0797 7.62704 4.91442C7.46177 4.74914 7.25274 4.6665 6.99996 4.6665C6.74718 4.6665 6.53815 4.74914 6.37288 4.91442C6.2076 5.0797 6.12496 5.28873 6.12496 5.5415C6.12496 5.79428 6.2076 6.00331 6.37288 6.16859C6.53815 6.33387 6.74718 6.4165 6.99996 6.4165Z" fill="white"/>
</g>
</svg>
