<svg width="14" height="14" viewBox="0 0 14 14" fill="none" xmlns="http://www.w3.org/2000/svg">
<mask id="mask0_1133_1406" style="mask-type:alpha" maskUnits="userSpaceOnUse" x="0" y="0" width="14" height="14">
<rect width="14" height="14" fill="#D9D9D9"/>
</mask>
<g mask="url(#mask0_1133_1406)">
<path d="M4.08325 12.8332C3.76242 12.8332 3.48777 12.7189 3.25929 12.4905C3.03082 12.262 2.91659 11.9873 2.91659 11.6665C2.91659 11.3457 3.03082 11.071 3.25929 10.8425C3.48777 10.6141 3.76242 10.4998 4.08325 10.4998C4.40409 10.4998 4.67874 10.6141 4.90721 10.8425C5.13568 11.071 5.24992 11.3457 5.24992 11.6665C5.24992 11.9873 5.13568 12.262 4.90721 12.4905C4.67874 12.7189 4.40409 12.8332 4.08325 12.8332ZM9.91658 12.8332C9.59575 12.8332 9.3211 12.7189 9.09263 12.4905C8.86415 12.262 8.74992 11.9873 8.74992 11.6665C8.74992 11.3457 8.86415 11.071 9.09263 10.8425C9.3211 10.6141 9.59575 10.4998 9.91658 10.4998C10.2374 10.4998 10.5121 10.6141 10.7405 10.8425C10.969 11.071 11.0833 11.3457 11.0833 11.6665C11.0833 11.9873 10.969 12.262 10.7405 12.4905C10.5121 12.7189 10.2374 12.8332 9.91658 12.8332ZM3.58742 3.49984L4.98742 6.4165H9.07075L10.6749 3.49984H3.58742ZM3.03325 2.33317H11.6374C11.861 2.33317 12.0312 2.43282 12.1478 2.63213C12.2645 2.83143 12.2694 3.03317 12.1624 3.23734L10.0916 6.97067C9.98464 7.16512 9.84124 7.31581 9.66138 7.42275C9.48152 7.5297 9.28464 7.58317 9.07075 7.58317H4.72492L4.08325 8.74984H11.0833V9.9165H4.08325C3.64575 9.9165 3.3152 9.72449 3.09159 9.34046C2.86797 8.95643 2.85825 8.57484 3.06242 8.19567L3.84992 6.7665L1.74992 2.33317H0.583252V1.1665H2.47909L3.03325 2.33317Z" fill="white"/>
</g>
</svg>
